<svg width="21" height="25" viewBox="0 0 21 25" fill="none" xmlns="http://www.w3.org/2000/svg">
<path d="M6.38651 5.83333C6.38651 4.72826 6.8198 3.66846 7.59108 2.88705C8.36236 2.10565 9.40843 1.66667 10.4992 1.66667C11.5899 1.66667 12.636 2.10565 13.4073 2.88705C14.1785 3.66846 14.6118 4.72826 14.6118 5.83333V6.66667H16.2569V5.83333C16.2569 4.28624 15.6503 2.80251 14.5705 1.70854C13.4907 0.614581 12.0262 0 10.4992 0C8.97213 0 7.50763 0.614581 6.42784 1.70854C5.34806 2.80251 4.74144 4.28624 4.74144 5.83333V6.66667H6.38651V5.83333ZM1.29338 10.5567C1.36058 9.94525 1.64793 9.3804 2.10047 8.9702C2.55301 8.56 3.13895 8.33325 3.74617 8.33333H17.2522C17.8591 8.33366 18.4447 8.56059 18.8969 8.97075C19.349 9.38092 19.6362 9.94553 19.7033 10.5567L20.9848 22.2233C21.0233 22.5728 20.9885 22.9266 20.8827 23.2616C20.777 23.5966 20.6026 23.9052 20.3712 24.1672C20.1397 24.4293 19.8562 24.6389 19.5393 24.7824C19.2224 24.9259 18.8792 25 18.532 25H2.46631C2.11933 24.9998 1.77628 24.9255 1.45957 24.7819C1.14286 24.6383 0.859608 24.4286 0.628297 24.1666C0.396986 23.9046 0.22282 23.5961 0.117169 23.2612C0.0115183 22.9264 -0.0232421 22.5727 0.0151573 22.2233L1.29338 10.5567Z" fill="white"/>
</svg>
