<svg width="22" height="22" viewBox="0 0 22 22" fill="none" xmlns="http://www.w3.org/2000/svg">
<path d="M19.8695 21.4554L11 12.5859L2.13052 21.4554C1.9172 21.6506 1.63678 21.756 1.34769 21.7496C1.0586 21.7432 0.783127 21.6255 0.578658 21.421C0.374189 21.2166 0.256493 20.9411 0.250087 20.652C0.243682 20.3629 0.349061 20.0825 0.544273 19.8692L9.40927 10.9997L0.542023 2.13241C0.433691 2.02917 0.347091 1.90532 0.287313 1.76813C0.227536 1.63094 0.195787 1.48318 0.193934 1.33355C0.192081 1.18391 0.22016 1.03541 0.276522 0.896782C0.332883 0.758154 0.416389 0.632191 0.522131 0.526299C0.627873 0.420406 0.753717 0.336721 0.892266 0.280165C1.03081 0.223606 1.17927 0.195316 1.32891 0.196957C1.47855 0.198599 1.62635 0.230139 1.76363 0.289721C1.9009 0.349304 2.02488 0.435728 2.12827 0.543913L11 9.41116L19.8695 0.541664C20.0828 0.346453 20.3633 0.241072 20.6524 0.247478C20.9414 0.253883 21.2169 0.37158 21.4214 0.576048C21.6259 0.780518 21.7436 1.05599 21.75 1.34508C21.7564 1.63417 21.651 1.91459 21.4558 2.12791L12.5863 10.9974L21.4558 19.8692C21.5641 19.9724 21.6507 20.0963 21.7105 20.2335C21.7703 20.3706 21.802 20.5184 21.8039 20.668C21.8057 20.8177 21.7776 20.9662 21.7213 21.1048C21.6649 21.2434 21.5814 21.3694 21.4757 21.4753C21.3699 21.5812 21.2441 21.6649 21.1055 21.7214C20.967 21.778 20.8185 21.8063 20.6689 21.8046C20.5192 21.803 20.3714 21.7714 20.2342 21.7119C20.0969 21.6523 19.9729 21.5658 19.8695 21.4577V21.4554Z" fill="#1C1D1B"/>
</svg>
