<svg width="17" height="16" viewBox="0 0 17 16" fill="none" xmlns="http://www.w3.org/2000/svg">
<g clip-path="url(#clip0_601_1944)">
<path d="M16.8899 4.72248C16.8809 4.05067 16.7549 3.38554 16.5176 2.75685C16.3118 2.22655 15.9974 1.74494 15.5946 1.34279C15.1918 0.940648 14.7094 0.626811 14.1782 0.421333C13.5565 0.188364 12.8998 0.0623939 12.2359 0.048786C11.3812 0.0106443 11.1102 0 8.94052 0C6.77082 0 6.49272 5.94791e-08 5.64421 0.048786C4.98064 0.0624939 4.32421 0.188463 3.70285 0.421333C3.17158 0.626668 2.68909 0.940454 2.28626 1.34262C1.88343 1.74478 1.56912 2.22646 1.36344 2.75685C1.12962 3.37699 1.00371 4.03247 0.991162 4.69498C0.952957 5.54917 0.941406 5.81972 0.941406 7.98581C0.941406 10.1519 0.941406 10.4287 0.991162 11.2766C1.00449 11.9401 1.12977 12.5947 1.36344 13.2165C1.56946 13.7468 1.88401 14.2283 2.28697 14.6302C2.68994 15.0322 3.17247 15.3459 3.70373 15.5512C4.3234 15.7935 4.97994 15.9285 5.64509 15.9503C6.50071 15.9885 6.7717 16 8.94141 16C11.1111 16 11.3892 16 12.2377 15.9503C12.9016 15.9373 13.5583 15.8116 14.18 15.5787C14.711 15.373 15.1933 15.059 15.5961 14.6569C15.9989 14.2548 16.3133 13.7733 16.5194 13.2432C16.753 12.6222 16.8783 11.9676 16.8917 11.3033C16.9299 10.4499 16.9414 10.1794 16.9414 8.01242C16.9396 5.84633 16.9396 5.57135 16.8899 4.72248ZM8.93519 12.0821C6.66597 12.0821 4.82768 10.2468 4.82768 7.98137C4.82768 5.71593 6.66597 3.8807 8.93519 3.8807C10.0246 3.8807 11.0693 4.31273 11.8396 5.08176C12.6099 5.85078 13.0427 6.89381 13.0427 7.98137C13.0427 9.06894 12.6099 10.112 11.8396 10.881C11.0693 11.65 10.0246 12.0821 8.93519 12.0821ZM13.2062 4.68522C13.0804 4.68534 12.9558 4.66068 12.8395 4.61267C12.7232 4.56466 12.6176 4.49423 12.5287 4.40542C12.4397 4.3166 12.3691 4.21114 12.3211 4.09508C12.273 3.97901 12.2483 3.85462 12.2484 3.72902C12.2484 3.6035 12.2731 3.47922 12.3213 3.36326C12.3694 3.24731 12.4399 3.14194 12.5288 3.05319C12.6177 2.96444 12.7232 2.89404 12.8394 2.84601C12.9555 2.79798 13.08 2.77326 13.2057 2.77326C13.3315 2.77326 13.4559 2.79798 13.5721 2.84601C13.6882 2.89404 13.7938 2.96444 13.8827 3.05319C13.9716 3.14194 14.0421 3.24731 14.0902 3.36326C14.1383 3.47922 14.1631 3.6035 14.1631 3.72902C14.1631 4.25768 13.7348 4.68522 13.2062 4.68522Z" fill="white"/>
<path d="M8.92854 10.5844C10.4416 10.5844 11.6681 9.41913 11.6681 7.98175C11.6681 6.54437 10.4416 5.37915 8.92854 5.37915C7.41552 5.37915 6.18896 6.54437 6.18896 7.98175C6.18896 9.41913 7.41552 10.5844 8.92854 10.5844Z" fill="white"/>
</g>
<defs>
<clipPath id="clip0_601_1944">
<rect width="16" height="16" fill="white" transform="translate(0.941406)"/>
</clipPath>
</defs>
</svg>
