<svg width="18" height="14" viewBox="0 0 18 14" fill="none" xmlns="http://www.w3.org/2000/svg">
<path d="M17.3327 4.17301V10.958C17.3327 11.6498 17.0681 12.3154 16.593 12.8182C16.1179 13.321 15.4684 13.623 14.7777 13.6622L14.6243 13.6663H3.37435C2.68257 13.6664 2.01699 13.4017 1.51416 12.9266C1.01132 12.4515 0.709348 11.802 0.670182 11.1113L0.666016 10.958V4.17301L8.70935 8.38634C8.79883 8.43321 8.89834 8.45769 8.99935 8.45769C9.10036 8.45769 9.19987 8.43321 9.28935 8.38634L17.3327 4.17301ZM3.37435 0.333008H14.6243C15.2957 0.332927 15.9431 0.582171 16.441 1.0324C16.939 1.48262 17.252 2.10174 17.3193 2.76967L8.99935 7.12801L0.679349 2.76967C0.743952 2.12827 1.03522 1.53094 1.50081 1.08506C1.96639 0.639182 2.57575 0.373997 3.21935 0.337175L3.37435 0.333008H14.6243H3.37435Z" fill="#728161"/>
</svg>
