<svg width="18" height="20" viewBox="0 0 18 20" fill="none" xmlns="http://www.w3.org/2000/svg">
<g clip-path="url(#clip0_202_2622)">
<path d="M9.00586 1.78027C7.3654 1.78213 5.79267 2.43463 4.63269 3.59461C3.47271 4.75458 2.82022 6.32732 2.81836 7.96777C2.81836 13.2623 8.44336 17.2631 8.68242 17.4318C8.77823 17.4956 8.89076 17.5297 9.00586 17.5297C9.12096 17.5297 9.23349 17.4956 9.3293 17.4318C9.56836 17.2631 15.1934 13.2623 15.1934 7.96777C15.1915 6.32732 14.539 4.75458 13.379 3.59461C12.219 2.43463 10.6463 1.78213 9.00586 1.78027ZM9.00586 5.71777C9.45087 5.71777 9.88588 5.84973 10.2559 6.09697C10.6259 6.3442 10.9143 6.6956 11.0846 7.10673C11.2549 7.51787 11.2994 7.97027 11.2126 8.40673C11.1258 8.84318 10.9115 9.24409 10.5968 9.55876C10.2822 9.87343 9.88127 10.0877 9.44481 10.1745C9.00836 10.2614 8.55596 10.2168 8.14482 10.0465C7.73369 9.8762 7.38229 9.58782 7.13505 9.2178C6.88782 8.84779 6.75586 8.41278 6.75586 7.96777C6.75586 7.37104 6.99291 6.79874 7.41487 6.37678C7.83683 5.95483 8.40912 5.71777 9.00586 5.71777Z" fill="#728161"/>
</g>
<defs>
<clipPath id="clip0_202_2622">
<rect width="13.5" height="16.875" fill="white" transform="translate(2.25 0.96582)"/>
</clipPath>
</defs>
</svg>
