<svg width="26" height="26" viewBox="0 0 26 26" fill="none" xmlns="http://www.w3.org/2000/svg">
<path fill-rule="evenodd" clip-rule="evenodd" d="M25.9644 12.9998C25.9644 20.1589 20.1599 25.9634 13.0007 25.9634C5.84158 25.9634 0.0371094 20.1589 0.0371094 12.9998C0.0371094 5.8406 5.84158 0.0361328 13.0007 0.0361328C20.1599 0.0361328 25.9644 5.8406 25.9644 12.9998ZM13.4653 9.60654C12.2046 10.1305 9.68421 11.2162 5.90532 12.8626C5.2917 13.1067 4.96977 13.3455 4.9406 13.5788C4.89091 13.9742 5.38569 14.1298 6.05764 14.3404C6.14946 14.3696 6.24453 14.3988 6.34176 14.4312C7.00398 14.6461 7.89415 14.8979 8.35652 14.9076C8.77676 14.9162 9.24561 14.7434 9.76308 14.389C13.2935 12.0048 15.116 10.8003 15.2305 10.7743C15.3115 10.756 15.4239 10.7322 15.4995 10.8003C15.5751 10.8672 15.5675 10.9947 15.56 11.0293C15.5103 11.2378 13.5722 13.0408 12.5675 13.9742C12.2543 14.2648 12.0328 14.4711 11.9874 14.5187C11.8859 14.6235 11.7822 14.7239 11.6828 14.8201C11.067 15.4121 10.6068 15.8572 11.7087 16.5831C12.2381 16.9321 12.6615 17.2205 13.0839 17.5079C13.5452 17.8222 14.0054 18.1355 14.6018 18.5266C14.753 18.626 14.8978 18.7286 15.0393 18.8291C15.5762 19.2126 16.0591 19.5561 16.6554 19.5021C17.0011 19.4697 17.3598 19.1445 17.5413 18.1733C17.9701 15.8766 18.8149 10.9029 19.0105 8.85249C19.0224 8.68225 19.0151 8.51121 18.9889 8.34258C18.9731 8.20639 18.9068 8.08107 18.8031 7.99148C18.6486 7.86509 18.4087 7.83808 18.3007 7.84024C17.8135 7.84888 17.0659 8.10924 13.4653 9.60654Z" fill="#728161"/>
</svg>
