<svg width="18" height="12" viewBox="0 0 18 12" fill="none" xmlns="http://www.w3.org/2000/svg">
<g clip-path="url(#clip0_604_3059)">
<path d="M17.4737 2.42765C17.6083 2.80265 17.1692 3.66398 16.1563 5.01163C16.0158 5.19913 15.8255 5.44815 15.5855 5.7587C15.3513 6.05753 15.1903 6.26847 15.1025 6.39151C15.0146 6.51456 14.9254 6.65958 14.8346 6.82657C14.7439 6.99357 14.7087 7.11661 14.7292 7.19571C14.7497 7.27482 14.7878 7.37589 14.8434 7.49894C14.899 7.62198 14.9941 7.74796 15.1288 7.87687C15.2635 8.00577 15.4303 8.16105 15.6294 8.34269C15.6528 8.35441 15.6675 8.36612 15.6733 8.37784C16.4988 9.14542 17.058 9.79288 17.3507 10.3202C17.3683 10.3495 17.3873 10.3861 17.4078 10.4301C17.4283 10.474 17.4488 10.5517 17.4693 10.663C17.4898 10.7743 17.4883 10.8739 17.4649 10.9618C17.4415 11.0497 17.3683 11.1303 17.2453 11.2035C17.1224 11.2768 16.9497 11.3134 16.7272 11.3134L14.4789 11.3485C14.3384 11.3778 14.1745 11.3632 13.9871 11.3046C13.7998 11.246 13.6475 11.1816 13.5304 11.1112L13.3548 11.0058C13.1792 10.8827 12.9742 10.6952 12.7401 10.4433C12.5059 10.1913 12.3053 9.96427 12.1385 9.76212C11.9716 9.55997 11.793 9.39005 11.6028 9.25235C11.4125 9.11466 11.2471 9.06925 11.1066 9.11612C11.089 9.12198 11.0656 9.13224 11.0363 9.14689C11.007 9.16153 10.9573 9.20401 10.887 9.27433C10.8167 9.34464 10.7538 9.43107 10.6982 9.5336C10.6426 9.63614 10.5928 9.78849 10.5489 9.99064C10.505 10.1928 10.486 10.4198 10.4918 10.6718C10.4918 10.7597 10.4816 10.8402 10.4611 10.9135C10.4406 10.9867 10.4186 11.0409 10.3952 11.0761L10.3601 11.12C10.2547 11.2314 10.0995 11.2958 9.89462 11.3134H8.88466C8.46897 11.3368 8.04157 11.2885 7.60246 11.1684C7.16335 11.0483 6.7784 10.893 6.4476 10.7025C6.11681 10.5121 5.81528 10.3188 5.54304 10.1225C5.27079 9.92618 5.06441 9.75773 4.92389 9.6171L4.70434 9.40616C4.64579 9.34757 4.56528 9.25968 4.46283 9.14249C4.36037 9.0253 4.15106 8.7587 3.8349 8.34269C3.51874 7.92667 3.20843 7.48429 2.90398 7.01554C2.59954 6.54679 2.24093 5.92862 1.82817 5.16105C1.4154 4.39347 1.03338 3.59659 0.682088 2.77042C0.646959 2.67667 0.629395 2.59757 0.629395 2.53312C0.629395 2.46866 0.638177 2.42179 0.655741 2.39249L0.69087 2.33976C0.778692 2.22843 0.945554 2.17276 1.19146 2.17276L3.59778 2.15519C3.66804 2.1669 3.73537 2.18595 3.79977 2.21232C3.86417 2.23868 3.91101 2.26358 3.94028 2.28702L3.9842 2.31339C4.07787 2.37784 4.14813 2.47159 4.19497 2.59464C4.31206 2.88761 4.44672 3.19083 4.59895 3.50431C4.75117 3.81778 4.8712 4.05655 4.95902 4.22062L5.09954 4.4755C5.26932 4.82706 5.43326 5.13175 5.59134 5.38956C5.74942 5.64737 5.8914 5.84806 6.01728 5.99161C6.14315 6.13517 6.26464 6.24796 6.38174 6.32999C6.49883 6.41202 6.59836 6.45304 6.68033 6.45304C6.7623 6.45304 6.84134 6.43839 6.91745 6.40909C6.92916 6.40323 6.9438 6.38858 6.96136 6.36515C6.97893 6.34171 7.01405 6.27726 7.06675 6.17179C7.11944 6.06632 7.15896 5.92862 7.18531 5.7587C7.21165 5.58878 7.23946 5.35148 7.26874 5.04679C7.29801 4.7421 7.29801 4.37589 7.26874 3.94815C7.25703 3.71378 7.23068 3.49991 7.1897 3.30655C7.14872 3.11319 7.10773 2.97843 7.06675 2.90226L7.01405 2.79679C6.86768 2.59757 6.61886 2.47159 6.26757 2.41886C6.19146 2.40714 6.20609 2.33683 6.31148 2.20792C6.40516 2.09659 6.5164 2.0087 6.6452 1.94425C6.95551 1.7919 7.65516 1.72159 8.74415 1.73331C9.22424 1.73917 9.61944 1.77726 9.92975 1.84757C10.0468 1.87687 10.1449 1.91642 10.2239 1.96622C10.303 2.01603 10.363 2.08634 10.404 2.17716C10.445 2.26798 10.4757 2.36173 10.4962 2.45841C10.5167 2.55509 10.5269 2.68839 10.5269 2.85831C10.5269 3.02823 10.524 3.18937 10.5182 3.34171C10.5123 3.49405 10.505 3.7006 10.4962 3.96134C10.4874 4.22208 10.483 4.46378 10.483 4.68644C10.483 4.75089 10.4801 4.87394 10.4742 5.05558C10.4684 5.23722 10.4669 5.37784 10.4699 5.47745C10.4728 5.57706 10.483 5.69571 10.5006 5.83341C10.5182 5.9711 10.5518 6.08536 10.6016 6.17618C10.6514 6.267 10.7172 6.33878 10.7992 6.39151C10.846 6.40323 10.8958 6.41495 10.9485 6.42667C11.0012 6.43839 11.0773 6.40616 11.1768 6.32999C11.2764 6.25382 11.3876 6.15274 11.5105 6.02677C11.6335 5.90079 11.7857 5.7045 11.9672 5.4379C12.1487 5.1713 12.3478 4.85636 12.5644 4.49308C12.9157 3.8837 13.2289 3.22452 13.5041 2.51554C13.5275 2.45694 13.5568 2.40567 13.5919 2.36173C13.6271 2.31778 13.6593 2.28702 13.6885 2.26944L13.7237 2.24308L13.7676 2.2211L13.8817 2.19474L14.0574 2.19034L16.5867 2.17276C16.815 2.14347 17.0023 2.15079 17.1487 2.19474C17.2951 2.23868 17.3858 2.28702 17.421 2.33976L17.4737 2.42765Z" fill="white"/>
</g>
<defs>
<clipPath id="clip0_604_3059">
<rect width="17.1429" height="11.25" fill="white" transform="translate(0.356934 0.107178)"/>
</clipPath>
</defs>
</svg>
