<svg width="26" height="26" viewBox="0 0 26 26" fill="none" xmlns="http://www.w3.org/2000/svg">
<path d="M23.5854 6.2811C19.8457 0.499809 12.2105 -1.21895 6.28933 2.37482C0.523971 5.9686 -1.34588 13.7812 2.39382 19.5625L2.70546 20.0312L1.4589 24.7187L6.13351 23.4687L6.60098 23.7812C8.62664 24.875 10.8081 25.5 12.9896 25.5C15.3269 25.5 17.6642 24.875 19.6899 23.625C25.4553 19.875 27.1693 12.2186 23.5854 6.2811ZM20.3132 18.3124C19.6899 19.25 18.9108 19.875 17.8201 20.0312C17.1968 20.0312 16.4177 20.3437 13.3013 19.0937C10.6523 17.8437 8.47082 15.8124 6.91262 13.4687C5.97769 12.3749 5.51023 10.9686 5.35441 9.56238C5.35441 8.31237 5.82187 7.21861 6.60098 6.43736C6.91262 6.12485 7.22426 5.9686 7.5359 5.9686H8.315C8.62664 5.9686 8.93828 5.9686 9.09411 6.59361C9.40575 7.37486 10.1848 9.24988 10.1848 9.40613C10.5 10 9.96101 11.0368 9.56157 11.4374C9.24993 11.5936 9.09411 11.9061 9.24993 12.2186C9.87321 13.1562 10.6523 14.0937 11.4314 14.8749C12.3663 15.6562 13.3013 16.2812 14.392 16.7499C14.7036 16.9062 15.0153 16.9062 15.1711 16.5937C15.3269 16.2812 16.106 15.4999 16.4177 15.1874C16.7293 14.8749 16.8851 14.8749 17.1968 15.0312L19.6899 16.2812C20.0016 16.4374 20.3132 16.5937 20.469 16.7499C20.6248 17.2187 20.6248 17.8437 20.3132 18.3124Z" fill="#728161"/>
</svg>
