<svg width="21" height="20" viewBox="0 0 21 20" fill="none" xmlns="http://www.w3.org/2000/svg">
<path d="M18.2879 6.00247C18.193 5.6503 18.0075 5.32914 17.7499 5.07094C17.4923 4.81274 17.1715 4.62652 16.8196 4.5308C15.5146 4.17247 10.2937 4.16663 10.2937 4.16663C10.2937 4.16663 5.07373 4.1608 3.7679 4.5033C3.41617 4.60342 3.09608 4.79228 2.83837 5.05174C2.58066 5.31121 2.39397 5.63257 2.29623 5.98497C1.95207 7.28997 1.94873 9.99663 1.94873 9.99663C1.94873 9.99663 1.9454 12.7166 2.28707 14.0083C2.47873 14.7225 3.04123 15.2866 3.75623 15.4791C5.07457 15.8375 10.2812 15.8433 10.2812 15.8433C10.2812 15.8433 15.5021 15.8491 16.8071 15.5075C17.1591 15.4119 17.4802 15.2261 17.7384 14.9684C17.9967 14.7108 18.1832 14.3902 18.2796 14.0383C18.6246 12.7341 18.6271 10.0283 18.6271 10.0283C18.6271 10.0283 18.6437 7.30747 18.2879 6.00247V6.00247ZM8.62373 12.5041L8.6279 7.50413L12.9671 10.0083L8.62373 12.5041V12.5041Z" fill="white"/>
</svg>
