<svg width="58" height="64" viewBox="0 0 58 64" fill="none" xmlns="http://www.w3.org/2000/svg">
<g opacity="0.3" filter="url(#filter0_f_192_2535)">
<ellipse cx="28.5" cy="56.5" rx="15.5" ry="3.5" fill="#1C1D1B"/>
</g>
<path d="M29.0234 3.625C23.7375 3.631 18.6698 5.73347 14.9321 9.47118C11.1944 13.2089 9.09193 18.2766 9.08594 23.5625C9.08594 40.6227 27.2109 53.5141 27.9813 54.0578C28.29 54.2634 28.6526 54.373 29.0234 54.373C29.3943 54.373 29.7569 54.2634 30.0656 54.0578C30.8359 53.5141 48.9609 40.6227 48.9609 23.5625C48.9549 18.2766 46.8525 13.2089 43.1148 9.47118C39.377 5.73347 34.3094 3.631 29.0234 3.625ZM29.0234 16.3125C30.4574 16.3125 31.8591 16.7377 33.0513 17.5343C34.2436 18.331 35.1728 19.4633 35.7216 20.788C36.2703 22.1128 36.4139 23.5705 36.1341 24.9769C35.8544 26.3833 35.1639 27.6751 34.15 28.689C33.136 29.703 31.8442 30.3934 30.4378 30.6732C29.0315 30.9529 27.5737 30.8094 26.249 30.2606C24.9242 29.7119 23.7919 28.7826 22.9953 27.5904C22.1986 26.3981 21.7734 24.9964 21.7734 23.5625C21.7734 21.6397 22.5373 19.7956 23.8969 18.436C25.2566 17.0763 27.1006 16.3125 29.0234 16.3125Z" fill="#728161"/>
<defs>
<filter id="filter0_f_192_2535" x="9" y="49" width="39" height="15" filterUnits="userSpaceOnUse" color-interpolation-filters="sRGB">
<feFlood flood-opacity="0" result="BackgroundImageFix"/>
<feBlend mode="normal" in="SourceGraphic" in2="BackgroundImageFix" result="shape"/>
<feGaussianBlur stdDeviation="2" result="effect1_foregroundBlur_192_2535"/>
</filter>
</defs>
</svg>
