<svg width="23" height="26" viewBox="0 0 23 26" fill="none" xmlns="http://www.w3.org/2000/svg">
<path d="M17.5803 21.6667C8.33834 21.6797 1.32376 14.5817 1.33351 5.41996C1.33351 4.82087 1.81884 4.33337 2.41684 4.33337H5.27684C5.81309 4.33337 6.26917 4.72771 6.34826 5.25854C6.53687 6.53152 6.90717 7.77084 7.44784 8.93862L7.55942 9.17912C7.63438 9.34096 7.6505 9.52389 7.60501 9.69634C7.55953 9.8688 7.45528 10.02 7.31026 10.1238C6.42409 10.7565 6.08609 12.0294 6.77617 13.0217C7.64499 14.2711 8.72936 15.3559 9.97851 16.2251C10.9719 16.9141 12.2448 16.5761 12.8764 15.691C12.9801 15.5456 13.1314 15.4409 13.3041 15.3952C13.4768 15.3495 13.6601 15.3657 13.8222 15.4408L14.0616 15.5513C15.2294 16.093 16.4688 16.4635 17.7417 16.652C18.2725 16.731 18.6668 17.1871 18.6668 17.7245V20.5834C18.6668 20.7257 18.6388 20.8667 18.5843 20.9982C18.5298 21.1297 18.4499 21.2492 18.3492 21.3498C18.2484 21.4504 18.1289 21.5302 17.9973 21.5846C17.8658 21.6389 17.7248 21.6668 17.5824 21.6667H17.5803Z" fill="#1C1D1B"/>
</svg>
