<?xml version="1.0" encoding="utf-8"?><svg viewBox="0 0 58 69" xmlns="http://www.w3.org/2000/svg" xmlns:xlink="http://www.w3.org/1999/xlink"><style>:root>svg{display:none}:root>svg:target{display:block}</style><svg viewBox="0 0 8 14" id="back" xmlns="http://www.w3.org/2000/svg"><path d="M7 1L1 7l6 6"/></svg><svg viewBox="0 0 21 25" id="cart" xmlns="http://www.w3.org/2000/svg"><path d="M6.387 5.833c0-1.105.433-2.165 1.204-2.946a4.086 4.086 0 012.908-1.22c1.09 0 2.137.439 2.908 1.22a4.195 4.195 0 011.205 2.946v.834h1.645v-.834a5.87 5.87 0 00-1.687-4.124A5.72 5.72 0 0010.5 0a5.72 5.72 0 00-4.072 1.709A5.872 5.872 0 004.74 5.833v.834h1.646v-.834zm-5.094 4.724A2.511 2.511 0 012.1 8.97a2.45 2.45 0 011.646-.637h13.506a2.45 2.45 0 011.645.638c.452.41.74.975.806 1.586l1.282 11.666a2.529 2.529 0 01-.614 1.944 2.441 2.441 0 01-1.84.833H2.467a2.44 2.44 0 01-1.838-.833 2.508 2.508 0 01-.613-1.944l1.278-11.666z"/></svg><svg viewBox="0 0 22 22" id="close" xmlns="http://www.w3.org/2000/svg"><path d="M19.87 21.455L11 12.585l-8.87 8.87A1.123 1.123 0 01.545 19.87L9.41 11 .542 2.133A1.123 1.123 0 112.128.544L11 9.41 19.87.54a1.123 1.123 0 011.586 1.587l-8.87 8.87 8.87 8.871a1.123 1.123 0 11-1.587 1.589v-.003z"/></svg><svg viewBox="0 0 9 16" id="fa" xmlns="http://www.w3.org/2000/svg"><path d="M8.147 0v3.2h-1.6c-.552 0-.8.648-.8 1.2v2h2.4v3.2h-2.4V16h-3.2V9.6h-2.4V6.4h2.4V3.2a3.2 3.2 0 013.2-3.2h2.4z"/></svg><svg viewBox="0 0 17 16" id="insta" xmlns="http://www.w3.org/2000/svg"><g clip-path="url(#ea)"><path d="M16.89 4.722a5.786 5.786 0 00-.372-1.965A4.089 4.089 0 0014.178.42a5.878 5.878 0 00-1.942-.37C11.38.01 11.11 0 8.94 0S6.493 0 5.644.049a5.88 5.88 0 00-1.941.372 4.094 4.094 0 00-2.34 2.336 5.805 5.805 0 00-.372 1.938c-.038.854-.05 1.125-.05 3.29 0 2.167 0 2.444.05 3.292.013.663.139 1.318.372 1.94a4.087 4.087 0 002.34 2.334c.62.242 1.277.377 1.942.4.856.037 1.127.049 3.296.049 2.17 0 2.448 0 3.297-.05a5.864 5.864 0 001.942-.371 4.102 4.102 0 002.34-2.336 5.838 5.838 0 00.372-1.94c.038-.853.05-1.124.05-3.29-.002-2.167-.002-2.442-.052-3.29zm-7.955 7.36a4.103 4.103 0 01-4.107-4.1 4.103 4.103 0 014.107-4.101 4.11 4.11 0 012.905 1.2 4.097 4.097 0 010 5.8 4.111 4.111 0 01-2.905 1.201zm4.271-7.397a.959.959 0 01-.958-.956.953.953 0 01.591-.883.958.958 0 011.324.883.956.956 0 01-.957.956z"/><path d="M8.929 10.584c1.513 0 2.74-1.165 2.74-2.602 0-1.438-1.227-2.603-2.74-2.603-1.513 0-2.74 1.165-2.74 2.603 0 1.437 1.227 2.602 2.74 2.602z"/></g><defs><clipPath id="ea"><path transform="translate(.941)" d="M0 0h16v16H0z"/></clipPath></defs></svg><svg viewBox="0 0 9 6" id="lang" xmlns="http://www.w3.org/2000/svg"><path opacity=".5" d="M4.116 5.54L.183.82A.5.5 0 01.568 0h7.864a.5.5 0 01.385.82L4.884 5.54a.5.5 0 01-.768 0z"/></svg><svg viewBox="0 0 30 69" id="left" xmlns="http://www.w3.org/2000/svg"><path d="M28.262 68L1 34.5 28.262 1"/></svg><svg viewBox="0 0 18 14" id="mail" xmlns="http://www.w3.org/2000/svg"><path d="M17.333 4.173v6.785a2.708 2.708 0 01-2.555 2.704l-.154.004H3.374A2.708 2.708 0 01.67 11.111l-.004-.153V4.173l8.043 4.213a.625.625 0 00.58 0l8.044-4.213zM3.374.333h11.25A2.708 2.708 0 0117.32 2.77L9 7.128.68 2.77A2.708 2.708 0 013.22.337l.155-.004h11.25-11.25z"/></svg><svg viewBox="0 0 23 26" id="phone" xmlns="http://www.w3.org/2000/svg"><path d="M17.58 21.667C8.338 21.68 1.324 14.582 1.334 5.42c0-.6.485-1.087 1.083-1.087h2.86c.536 0 .992.395 1.071.926a13.452 13.452 0 001.1 3.68l.111.24a.766.766 0 01-.249.945c-.886.633-1.224 1.905-.534 2.898a12.818 12.818 0 003.203 3.203c.993.69 2.266.351 2.897-.534a.766.766 0 01.946-.25l.24.11c1.167.542 2.407.912 3.68 1.101.53.079.925.535.925 1.072v2.86a1.084 1.084 0 01-1.085 1.083h-.002z"/></svg><svg viewBox="0 0 18 20" id="pin" xmlns="http://www.w3.org/2000/svg"><g clip-path="url(#ja)"><path d="M9.006 1.78a6.195 6.195 0 00-6.188 6.188c0 5.294 5.625 9.295 5.864 9.464a.584.584 0 00.647 0c.24-.169 5.864-4.17 5.864-9.464A6.195 6.195 0 009.006 1.78zm0 3.938a2.25 2.25 0 110 4.5 2.25 2.25 0 010-4.5z"/></g><defs><clipPath id="ja"><path transform="translate(2.25 .966)" d="M0 0h13.5v16.875H0z"/></clipPath></defs></svg><svg viewBox="0 0 58 64" id="pin-map" xmlns="http://www.w3.org/2000/svg"><g opacity=".3" filter="url(#ka)"><ellipse cx="28.5" cy="56.5" rx="15.5" ry="3.5"/></g><path d="M29.023 3.625A19.96 19.96 0 009.086 23.563c0 17.06 18.125 29.951 18.895 30.495a1.88 1.88 0 002.085 0c.77-.544 18.895-13.435 18.895-30.495A19.96 19.96 0 0029.023 3.625zm0 12.688a7.25 7.25 0 110 14.5 7.25 7.25 0 010-14.5z"/><defs><filter id="ka" x="9" y="49" width="39" height="15" filterUnits="userSpaceOnUse" color-interpolation-filters="sRGB"><feFlood flood-opacity="0" result="BackgroundImageFix"/><feBlend in="SourceGraphic" in2="BackgroundImageFix" result="shape"/><feGaussianBlur stdDeviation="2" result="effect1_foregroundBlur_192_2535"/></filter></defs></svg><svg viewBox="0 0 30 69" id="right" xmlns="http://www.w3.org/2000/svg"><path d="M1.738 68L29 34.5 1.738 1"/></svg><svg viewBox="0 0 26 26" id="telegram" xmlns="http://www.w3.org/2000/svg"><path fill-rule="evenodd" clip-rule="evenodd" d="M25.964 13c0 7.159-5.804 12.963-12.963 12.963C5.84 25.963.037 20.16.037 13 .037 5.84 5.842.036 13.001.036 20.16.036 25.964 5.841 25.964 13zM13.465 9.607c-1.26.524-3.78 1.61-7.56 3.256-.613.244-.935.482-.964.716-.05.395.445.55 1.117.761l.284.091c.662.215 1.552.467 2.015.477.42.008.889-.165 1.406-.519 3.53-2.384 5.353-3.589 5.467-3.615.082-.018.194-.042.27.026.075.067.068.195.06.23-.05.208-1.988 2.01-2.992 2.944a23.783 23.783 0 00-.885.846c-.616.592-1.076 1.037.026 1.763.53.35.953.638 1.375.925.461.314.921.628 1.518 1.019.151.099.296.202.437.302.537.384 1.02.727 1.616.673.346-.032.705-.357.886-1.329.43-2.296 1.274-7.27 1.47-9.32.011-.17.004-.342-.022-.51a.547.547 0 00-.186-.352c-.154-.126-.394-.153-.502-.15-.487.008-1.235.268-4.836 1.766z"/></svg><svg viewBox="0 0 20 20" id="user" xmlns="http://www.w3.org/2000/svg"><path d="M10 12.5c-5.92 0-9 3.5-9 5.5v1h18v-1c0-2-3.08-5.5-9-5.5zm0-1.5a5 5 0 100-10 5 5 0 000 10z"/></svg><svg viewBox="0 0 18 12" id="vk" xmlns="http://www.w3.org/2000/svg"><g clip-path="url(#oa)"><path d="M17.474 2.428c.134.375-.305 1.236-1.318 2.584-.14.187-.33.436-.57.747-.235.299-.396.51-.484.633a4.22 4.22 0 00-.267.435c-.091.167-.126.29-.106.369.02.079.059.18.114.303.056.123.151.249.286.378.135.129.301.284.5.466.024.011.039.023.044.035.826.767 1.385 1.415 1.678 1.942.017.03.036.066.057.11.02.044.04.122.061.233a.68.68 0 01-.004.299c-.023.088-.097.168-.22.242-.123.073-.295.11-.518.11l-2.248.034a.984.984 0 01-.492-.043 2.134 2.134 0 01-.457-.194l-.175-.105a4.121 4.121 0 01-.615-.563 15.646 15.646 0 01-.601-.68 2.914 2.914 0 00-.536-.51c-.19-.138-.356-.184-.496-.137a.573.573 0 00-.07.03 1.115 1.115 0 00-.338.387 1.804 1.804 0 00-.15.458 2.882 2.882 0 00-.057.68c0 .089-.01.17-.03.243a.595.595 0 01-.067.162l-.035.044c-.105.111-.26.176-.465.193h-1.01a3.99 3.99 0 01-1.283-.145 4.896 4.896 0 01-1.154-.465 10.52 10.52 0 01-.905-.58 5.222 5.222 0 01-.62-.506l-.219-.21a5.775 5.775 0 01-.241-.265 19.428 19.428 0 01-.628-.8 21.974 21.974 0 01-.931-1.326A26.923 26.923 0 011.828 5.16 29.022 29.022 0 01.682 2.77a.701.701 0 01-.053-.238c0-.064.01-.111.027-.14L.69 2.34c.088-.112.255-.167.5-.167l2.407-.018c.07.012.137.031.202.057a.595.595 0 01.14.075l.044.026a.58.58 0 01.211.282c.117.293.252.596.404.91.152.313.272.552.36.716l.14.255c.17.351.334.656.492.914.158.257.3.458.426.602.126.143.248.256.365.338.117.082.216.123.298.123a.654.654 0 00.237-.044.15.15 0 00.044-.044 1.424 1.424 0 00.224-.606c.027-.17.054-.408.084-.712a6.904 6.904 0 000-1.099 4.088 4.088 0 00-.08-.641 1.683 1.683 0 00-.122-.405l-.053-.105c-.146-.2-.395-.325-.746-.378-.077-.012-.062-.082.043-.211.094-.111.205-.2.334-.264.31-.152 1.01-.222 2.1-.21.48.005.874.043 1.185.114a.997.997 0 01.294.118c.079.05.139.12.18.211.041.091.072.185.092.281.02.097.03.23.03.4s-.002.331-.008.484l-.022.62c-.009.26-.013.502-.013.724 0 .065-.003.188-.009.37a7.293 7.293 0 00-.004.421c.003.1.013.219.03.356a.967.967 0 00.102.343c.05.091.115.163.197.216l.15.035c.052.011.128-.02.228-.097.1-.076.21-.177.334-.303a4.54 4.54 0 00.456-.59c.182-.266.38-.58.597-.944.352-.61.665-1.268.94-1.977a.603.603 0 01.088-.154.395.395 0 01.096-.093l.036-.026.044-.022.114-.026.175-.005 2.53-.017a1.38 1.38 0 01.562.022c.146.044.237.092.272.145l.053.088z"/></g><defs><clipPath id="oa"><path transform="translate(.357 .107)" d="M0 0h17.143v11.25H0z"/></clipPath></defs></svg><svg viewBox="0 0 26 26" id="whatsapp" xmlns="http://www.w3.org/2000/svg"><path d="M23.585 6.281C19.845.5 12.21-1.219 6.29 2.375.524 5.969-1.346 13.78 2.394 19.563l.311.468L1.46 24.72l4.675-1.25.467.312c2.026 1.094 4.207 1.719 6.389 1.719 2.337 0 4.674-.625 6.7-1.875 5.765-3.75 7.48-11.406 3.895-17.344zm-3.272 12.031c-.623.938-1.402 1.563-2.493 1.72-.623 0-1.402.312-4.519-.938-2.649-1.25-4.83-3.282-6.388-5.625-.935-1.094-1.403-2.5-1.559-3.907 0-1.25.468-2.343 1.247-3.125.312-.312.623-.468.935-.468h.779c.312 0 .623 0 .78.625.31.78 1.09 2.656 1.09 2.812.315.594-.224 1.63-.623 2.031-.312.157-.468.47-.312.782a17.968 17.968 0 002.181 2.656c.935.781 1.87 1.406 2.961 1.875.312.156.623.156.78-.156.155-.313.934-1.094 1.246-1.407.311-.312.467-.312.779-.156l2.493 1.25c.312.156.623.313.779.469.156.469.156 1.094-.156 1.562z"/></svg><svg viewBox="0 0 21 20" id="youtube" xmlns="http://www.w3.org/2000/svg"><path d="M18.288 6.002a2.088 2.088 0 00-1.468-1.471c-1.305-.359-6.526-.364-6.526-.364s-5.22-.006-6.526.336a2.133 2.133 0 00-1.472 1.482C1.952 7.29 1.95 9.997 1.95 9.997s-.004 2.72.338 4.011a2.088 2.088 0 001.47 1.471c1.318.359 6.524.364 6.524.364s5.221.006 6.526-.335a2.096 2.096 0 001.473-1.47c.345-1.304.347-4.01.347-4.01s.017-2.72-.34-4.026zm-9.664 6.502l.004-5 4.34 2.504-4.344 2.496z"/></svg></svg>